<?xml version="1.0" encoding="us-ascii" standalone="no"?><svg xmlns="http://www.w3.org/2000/svg" xmlns:xlink="http://www.w3.org/1999/xlink" contentStyleType="text/css" height="419px" preserveAspectRatio="none" style="width:288px;height:419px;background:#FFFFFF;" version="1.1" viewBox="0 0 288 419" width="288px" zoomAndPan="magnify"><defs/><g><!--entity titlescene--><g id="elem_titlescene"><rect fill="#1168BD" height="41.9766" rx="2.5" ry="2.5" style="stroke:#3C7FC0;stroke-width:0.5;" width="69.5" x="17" y="7"/><text fill="#FFFFFF" font-family="sans-serif" font-size="16" font-weight="bold" lengthAdjust="spacing" textLength="49.5" x="27" y="35.4609">&#53440;&#51060;&#53952;</text></g><!--entity setting--><g id="elem_setting"><rect fill="#1168BD" height="41.9766" rx="2.5" ry="2.5" style="stroke:#3C7FC0;stroke-width:0.5;" width="53" x="25.5" y="121"/><text fill="#FFFFFF" font-family="sans-serif" font-size="16" font-weight="bold" lengthAdjust="spacing" textLength="33" x="35.5" y="149.4609">&#49444;&#51221;</text></g><!--entity select--><g id="elem_select"><rect fill="#1168BD" height="41.9766" rx="2.5" ry="2.5" style="stroke:#3C7FC0;stroke-width:0.5;" width="53" x="25.5" y="246.5"/><text fill="#FFFFFF" font-family="sans-serif" font-size="16" font-weight="bold" lengthAdjust="spacing" textLength="33" x="35.5" y="274.9609">&#49440;&#53469;</text></g><!--entity stage--><g id="elem_stage"><rect fill="#1168BD" height="65.2061" rx="2.5" ry="2.5" style="stroke:#3C7FC0;stroke-width:0.5;" width="86" x="196" y="235"/><text fill="#FFFFFF" font-family="sans-serif" font-size="16" font-weight="bold" lengthAdjust="spacing" textLength="66" x="206" y="263.4609">&#49828;&#53580;&#51060;&#51648;</text><text fill="#FFFFFF" font-family="sans-serif" font-size="14" lengthAdjust="spacing" textLength="46" x="216" y="285.1299">&#47605; &#51221;&#48372;</text><line style="stroke:#FFFFFF;stroke-width:0.5;" x1="212" x2="266" y1="268.9766" y2="268.9766"/><line style="stroke:#FFFFFF;stroke-width:0.5;" x1="212" x2="266" y1="288.2061" y2="288.2061"/><line style="stroke:#FFFFFF;stroke-width:0.5;" x1="212" x2="212" y1="268.9766" y2="288.2061"/><line style="stroke:#FFFFFF;stroke-width:0.5;" x1="266" x2="266" y1="268.9766" y2="288.2061"/></g><!--entity gameEnd--><g id="elem_gameEnd"><rect fill="#999999" height="41.9766" rx="2.5" ry="2.5" style="stroke:#8A8A8A;stroke-width:0.5;" width="90" x="7" y="372"/><text fill="#FFFFFF" font-family="sans-serif" font-size="16" font-weight="bold" lengthAdjust="spacing" textLength="33" x="17" y="400.4609">&#44172;&#51076;</text><text fill="#FFFFFF" font-family="sans-serif" font-size="16" font-weight="bold" lengthAdjust="spacing" textLength="4" x="50" y="400.4609">&#160;</text><text fill="#FFFFFF" font-family="sans-serif" font-size="16" font-weight="bold" lengthAdjust="spacing" textLength="33" x="54" y="400.4609">&#51333;&#47308;</text></g><!--link titlescene to setting--><g id="link_titlescene_setting"><path d="M52,49.02 C52,69.28 52,92.44 52,112.77 " fill="none" id="titlescene-to-setting" style="stroke:#666666;stroke-width:1.0;"/><polygon fill="#666666" points="52,120.77,55,112.77,49,112.77,52,120.77" style="stroke:#666666;stroke-width:1.0;"/><text fill="#666666" font-family="sans-serif" font-size="0" lengthAdjust="spacing" textLength="0" x="53" y="80">.</text></g><!--link setting to select--><g id="link_setting_select"><path d="M52,163.12 C52,186.08 52,215.43 52,238.39 " fill="none" id="setting-to-select" style="stroke:#666666;stroke-width:1.0;"/><polygon fill="#666666" points="52,246.39,55,238.39,49,238.39,52,246.39" style="stroke:#666666;stroke-width:1.0;"/><text fill="#666666" font-family="sans-serif" font-size="0" lengthAdjust="spacing" textLength="0" x="53" y="194">.</text></g><!--link select to stage--><g id="link_select_stage"><path d="M78.79,267.5 C109.29,267.5 151.55,267.5 187.65,267.5 " fill="none" id="select-to-stage" style="stroke:#666666;stroke-width:1.0;"/><polygon fill="#666666" points="195.65,267.5,187.65,264.5,187.65,270.5,195.65,267.5" style="stroke:#666666;stroke-width:1.0;"/><text fill="#666666" font-family="sans-serif" font-size="12" font-weight="bold" lengthAdjust="spacing" textLength="49.5" x="98.625" y="245.3457">&#49828;&#53580;&#51060;&#51648;</text><text fill="#666666" font-family="sans-serif" font-size="12" font-weight="bold" lengthAdjust="spacing" textLength="3" x="148.125" y="245.3457">&#160;</text><text fill="#666666" font-family="sans-serif" font-size="12" font-weight="bold" lengthAdjust="spacing" textLength="24.75" x="151.125" y="245.3457">&#49440;&#53469;</text><text fill="#666666" font-family="sans-serif" font-size="12" font-style="italic" lengthAdjust="spacing" textLength="51" x="96.75" y="261.8281">[&#49828;&#53580;&#51060;&#51648;</text><text fill="#666666" font-family="sans-serif" font-size="12" font-style="italic" lengthAdjust="spacing" textLength="3" x="147.75" y="261.8281">&#160;</text><text fill="#666666" font-family="sans-serif" font-size="12" font-style="italic" lengthAdjust="spacing" textLength="27" x="150.75" y="261.8281">&#48264;&#54840;]</text></g><!--reverse link select to stage--><g id="link_select_stage"><path d="M86.2473,285.348 C92.2773,287.968 91.43,287.12 97.75,288.5 C132.05,296 142.1,294.19 176.75,288.5 C183.05,287.47 189.58,285.88 195.92,284.03 " fill="none" id="select-backto-stage" style="stroke:#666666;stroke-width:1.0;"/><polygon fill="#666666" points="78.91,282.16,85.0518,288.0995,87.4428,282.5965,78.91,282.16" style="stroke:#666666;stroke-width:1.0;"/><text fill="#666666" font-family="sans-serif" font-size="12" font-weight="bold" lengthAdjust="spacing" textLength="49.5" x="98.75" y="285.3457">&#49828;&#53580;&#51060;&#51648;</text><text fill="#666666" font-family="sans-serif" font-size="12" font-weight="bold" lengthAdjust="spacing" textLength="3" x="148.25" y="285.3457">&#160;</text><text fill="#666666" font-family="sans-serif" font-size="12" font-weight="bold" lengthAdjust="spacing" textLength="24.75" x="151.25" y="285.3457">&#51333;&#47308;</text></g><!--link select to gameEnd--><g id="link_select_gameEnd"><path d="M52,288.62 C52,311.58 52,340.93 52,363.89 " fill="none" id="select-to-gameEnd" style="stroke:#666666;stroke-width:1.0;"/><polygon fill="#666666" points="52,371.89,55,363.89,49,363.89,52,371.89" style="stroke:#666666;stroke-width:1.0;"/><text fill="#666666" font-family="sans-serif" font-size="0" lengthAdjust="spacing" textLength="0" x="53" y="331">.</text></g><!--SRC=[RP11Qy9058Jl-HMffmZLN7hghTY01Kj5BQMdi2QF6DXimkQ5rfkWGccz5dgnI2jujnRwcvhDV-Yp6gEbrvbviz_iaIySdhYWzn2Z-DGq9RkhUZxsacuIWtH2WI2mweI16N4cC0bu9KQN-rspTb9fhgNhouOPi1X1acJNw8Bv0cGregnMlpYtx7R7QbbNdTkcPPGrhTsdR62WZnnY1mGSwwLiE53JLVOqA9LpFmP4NtXagj5SpPxt7GuE_XgpR3WbuuQ0mmIRCen0OhyEp0L9RvsvRguPfNJngLDF-h7QgqBchTzNZ_DiF244jIWGREiU3Oy5O0cNCj_BYNeTwUfjdBvFAAIrW1-iA8Z9NPixOKUyFRDRkn7_4UZRON_bTFcGlNnjokr63bzynq55Zha1sKIACMJy0000]--></g></svg>